<svg width="256" height="128" viewBox="0 0 256 128" xmlns="http://www.w3.org/2000/svg"><title>breakdown</title><path d="M202.56 90.152h-6.316a18.03 18.03 0 0 0 .283-3.085c0-9.972-8.112-18.085-18.084-18.085s-18.085 8.113-18.085 18.085c0 1.054.11 2.08.284 3.085H97.647a18.03 18.03 0 0 0 .283-3.085c0-9.972-8.113-18.085-18.084-18.085-9.972 0-18.086 8.113-18.086 18.085 0 1.054.11 2.08.283 3.085h-2.849c-.133 0-.288.01-.42.022-1.458.15-8.762.541-9.443-6.003a4.112 4.112 0 0 0-.053-.353c-.027-.14-2.586-13.983 8.334-20.35.113-.065 11.544-6.547 31.228-9.838a4.023 4.023 0 0 0 1.91-.879c.24-.203 24.516-20.259 51.915-21.496.092-.007 3.862-.239 9.46-.239 8.19 0 20.293.497 30.49 2.93 2.649.76 5.546 1.828 6.198 2.278.077.06.168.126.249.18.76.514 18.638 12.904 18.415 41.798.035 2.727-.809 10.59-4.917 11.95m-14.08-2.163c-.01.112-.024.223-.04.333a9.21 9.21 0 0 1-.281 1.411c-1.174 4.27-5.08 7.418-9.716 7.418-4.636 0-8.542-3.149-9.715-7.418-.041-.15-.083-.3-.117-.454a10.135 10.135 0 0 1-.166-.955c-.013-.112-.03-.223-.04-.335a10.055 10.055 0 0 1-.047-.922c0-5.56 4.524-10.085 10.085-10.085 5.56 0 10.085 4.524 10.085 10.085 0 .311-.018.618-.047.922m-98.598 0c-.01.112-.026.223-.04.333a10.09 10.09 0 0 1-.165.957 9.735 9.735 0 0 1-.117.454c-1.174 4.27-5.08 7.418-9.715 7.418-4.637 0-8.542-3.148-9.716-7.416a8.96 8.96 0 0 1-.283-1.41c-.014-.113-.03-.224-.04-.336a10.055 10.055 0 0 1-.047-.922c0-5.56 4.525-10.085 10.086-10.085 5.56 0 10.084 4.524 10.084 10.085 0 .311-.018.618-.047.922M193.61 29.824c-2.128-1.57-6.9-3.03-8.886-3.596a4.769 4.769 0 0 0-.161-.042c-18.371-4.405-41.44-2.978-42.335-2.92-25.603 1.157-47.866 16.615-54.583 21.741-16.798-12.21-29.736-15.99-30.29-16.147a4 4 0 0 0-2.192 7.693c.107.031 9.454 2.763 22.409 11.223-15.057 3.67-23.547 8.523-23.975 8.772C38.467 65.37 41.015 83 41.391 85.158c.445 3.932 2.162 7.205 4.971 9.47 3.855 3.107 8.742 3.588 11.404 3.588.73 0 1.291-.036 1.618-.064h6.203c3.313 4.25 8.465 7 14.259 7 5.793 0 10.946-2.75 14.258-7h70.082c3.312 4.25 8.464 7 14.257 7 5.794 0 10.946-2.75 14.258-7h10.39c.3 0 .597-.033.89-.1 9.286-2.12 11.594-13.498 11.496-19.928.23-32.37-19.939-46.98-21.867-48.3" fill="#2D3737" fill-rule="evenodd"/></svg>