<?xml version="1.0" encoding="UTF-8"?>
<svg width="90px" height="45px" viewBox="0 0 90 45" version="1.1" xmlns="http://www.w3.org/2000/svg" xmlns:xlink="http://www.w3.org/1999/xlink">
    <!-- Generator: Sketch 51.3 (57544) - http://www.bohemiancoding.com/sketch -->
    <title>icon-service</title>
    <desc>Created with Sketch.</desc>
    <defs>
        <path d="M30.903145,19.38818 C29.952895,19.38818 29.019795,19.22788 28.129745,18.91218 C27.621545,18.73123 27.053145,18.86003 26.671645,19.24153 L7.874545,38.03898 C6.794445,39.11873 5.037795,39.11838 3.958395,38.03933 C2.878645,36.95923 2.878645,35.20223 3.958045,34.12283 L22.755495,15.32573 C23.137345,14.94388 23.265445,14.37688 23.085195,13.86833 C22.769145,12.97548 22.608845,12.04203 22.608845,11.09423 C22.608845,6.52078 26.329695,2.79993 30.903145,2.79993 C31.341695,2.79993 31.774995,2.83388 32.201995,2.90143 L28.124845,6.97823 C27.857095,7.24598 27.713595,7.61488 27.718845,7.99323 C27.719895,8.05133 27.724445,8.10908 27.732495,8.16613 L28.020545,12.67693 C28.065695,13.37973 28.625695,13.94008 29.328495,13.98488 L33.940095,14.27888 C34.341545,14.30408 34.734945,14.15638 35.019145,13.87183 L39.095595,9.79503 C39.163495,10.22238 39.197095,10.65568 39.197095,11.09423 C39.197095,15.66768 35.476245,19.38818 30.903145,19.38818 M41.037745,6.58273 C40.850145,6.16133 40.467245,5.85928 40.013645,5.77528 C39.561095,5.69093 39.094545,5.83583 38.769045,6.16203 L33.486845,11.44458 L30.736195,11.26888 L30.560145,8.50283 L35.834295,3.22868 C36.160495,2.90283 36.305045,2.43733 36.221045,1.98408 C36.137395,1.53083 35.836045,1.14828 35.415345,0.96033 C33.987695,0.32298 32.469745,-7e-05 30.903145,-7e-05 C24.785495,-7e-05 19.808845,4.97693 19.808845,11.09423 C19.808845,12.05988 19.933095,13.01398 20.179495,13.94183 L1.978095,32.14253 C-0.192955,34.31393 -0.192955,37.84683 1.978095,40.01893 C3.064145,41.10428 4.490395,41.64713 5.916295,41.64713 C7.342895,41.64713 8.768795,41.10428 9.854145,40.01893 L28.054845,21.81753 C28.981645,22.06393 29.935745,22.18818 30.903145,22.18818 C37.020445,22.18818 41.997095,17.21153 41.997095,11.09423 C41.997095,9.53043 41.674395,8.01283 41.037745,6.58273" id="path-1"></path>
    </defs>
    <g id="icon-service" stroke="none" stroke-width="1" fill="none" fill-rule="evenodd">
        <g id="Icons/spanner" transform="translate(23.000000, 0.000000)">
            <g id="Colour" transform="translate(1.400000, 1.750000)">
                <mask id="mask-2" fill="white">
                    <use xlink:href="#path-1"></use>
                </mask>
                <use id="Mask" fill="#2D3737" xlink:href="#path-1"></use>
                <g id="Colours/Black/Base" mask="url(#mask-2)" fill="#2D3737">
                    <g transform="translate(-1.400000, -1.750000)" id="Rectangle">
                        <rect x="0" y="0" width="44.1" height="44.1"></rect>
                    </g>
                </g>
            </g>
        </g>
    </g>
</svg>