<svg width="128" height="128" viewBox="0 0 128 128" xmlns="http://www.w3.org/2000/svg"><title>mot</title><path d="M70.534 60.126l20.915-36.14 20.913 36.14H70.534zm13.979 48.12H42.686l20.913-36.138 20.914 36.137zm-69.579-48.12L35.8 24.072l20.865 36.054H14.934zm107.754 1.871l-27.777-48a4 4 0 0 0-6.924 0l-24.388 42.14L39.526 14.54a3.986 3.986 0 0 0-.262-.538C38.551 12.763 37.18 12 35.75 12a3.999 3.999 0 0 0-3.802 2.755L4.608 61.997l-.024.043-.071.125A4 4 0 0 0 8 68.126h48.661l-24.373 42.115a3.999 3.999 0 0 0 3.462 6.004h55.699a3.999 3.999 0 0 0 3.462-6.004L70.538 68.126H119.2a4 4 0 0 0 3.914-3.175l.026-.125a3.994 3.994 0 0 0-.452-2.829z" fill="#2D3737" fill-rule="evenodd"/></svg>