<svg width="256" height="128" viewBox="0 0 256 128" xmlns="http://www.w3.org/2000/svg"><title>remote-key</title><path d="M198.068 75.709c1.31-3.518 2.063-7.404 2.063-11.709s-.753-8.191-2.063-11.709c5.206 1.357 9.064 6.084 9.064 11.709s-3.858 10.352-9.064 11.709M165 94.355c-16.241 6.31-38.882 9.645-65.478 9.645-23.65 0-36.554-2.642-43.144-8.831C50.175 89.344 49 79.721 49 64s1.175-25.344 7.378-31.169C62.968 26.642 75.872 24 99.522 24c26.596 0 49.237 3.335 65.478 9.645 18.003 6.994 27.131 17.207 27.131 30.355S183.003 87.361 165 94.355m30.019-50.468a3.96 3.96 0 0 0-1.372.257c-6.438-8.762-16.636-14.415-25.751-17.956C146.224 17.768 118.753 16 99.522 16c-26.216 0-40.303 3.187-48.621 11C41.756 35.588 41 49.402 41 64c0 14.598.756 28.412 9.901 37 8.318 7.813 22.405 11 48.621 11 19.231 0 46.702-1.768 68.374-10.187 9.115-3.542 19.313-9.195 25.751-17.957.43.158.888.257 1.372.257 11.091 0 20.113-9.022 20.113-20.113s-9.022-20.113-20.113-20.113m-63.23 39.557V44.555c15.127.723 38.116 4.314 38.116 19.445s-22.989 18.721-38.116 19.444M100.118 64c0-8.001.507-12.828 3.18-15.416 2.903-2.809 9.254-4.106 20.491-4.187v39.206c-11.237-.082-17.588-1.379-20.491-4.188-2.673-2.588-3.18-7.414-3.18-15.415m24.79-27.611c-14.569 0-22.443 1.868-27.173 6.447-5.194 5.027-5.617 12.56-5.617 21.164 0 8.605.423 16.137 5.617 21.164 4.73 4.579 12.604 6.446 27.173 6.446 46.112 0 52.997-17.298 52.997-27.61 0-10.312-6.885-27.611-52.997-27.611M69.454 84.434a4.934 4.934 0 0 1-4.928-4.928 4.934 4.934 0 0 1 4.928-4.928 4.933 4.933 0 0 1 4.927 4.928 4.933 4.933 0 0 1-4.927 4.928m0-17.856c-7.128 0-12.928 5.8-12.928 12.928 0 7.128 5.8 12.928 12.928 12.928 7.128 0 12.927-5.8 12.927-12.928 0-7.128-5.799-12.928-12.927-12.928" fill="#2D3737" fill-rule="evenodd"/></svg>