<svg width="128" height="128" viewBox="0 0 128 128" xmlns="http://www.w3.org/2000/svg"><title>tyre</title><path d="M92.24 105.096c0 3.102-5.88 7.22-15.788 9.245v-12.863l15.788-7.734v10.724c0 .105.004.21.012.314a4.054 4.054 0 0 0-.012.314zm-57.24 0V94.082l15.787 7.734v12.525c-9.906-2.025-15.788-6.144-15.788-9.246zM50.786 14.23v17.12L34.999 23.62v-.143c0-3.102 5.882-7.22 15.788-9.244zm41.438 9.056l-15.773 7.725v-16.78c9.71 1.983 15.544 5.977 15.773 9.055zm.015 44l-15.788 7.731v-17.55l15.788-7.732v17.55zM76.452 79.47l15.788-7.73v17.55l-15.788 7.733V79.471zm0-44.007l15.788-7.73v17.548l-15.788 7.734V35.465zM65.617 13.032c2.416.066 4.699.252 6.835.532V115.01c-2.136.28-4.42.466-6.835.532V13.032zm-10.83.532a66.351 66.351 0 0 1 6.83-.532v102.512a66.623 66.623 0 0 1-6.83-.534V13.565zM34.999 72.08l15.788 7.733v17.552L34.999 89.63V72.08zm15.788-14.27v17.55l-15.788-7.733v-17.55l15.788 7.733zm0-4.453l-15.788-7.733v-17.55l15.788 7.731v17.551zm49.453-30.282c0-.22-.018-.44-.053-.652C99.177 12.417 83.796 5 63.62 5c-20.176 0-35.557 7.418-36.567 17.422a4.012 4.012 0 0 0-.053.652v82.022c0 10.533 15.744 18.477 36.62 18.477 20.877 0 36.62-7.944 36.62-18.477 0-.106-.004-.21-.012-.314.008-.105.012-.209.012-.314V23.073z" fill="#2D3737" fill-rule="evenodd"/></svg>